<?xml version="1.0" standalone="no"?>
<!DOCTYPE svg PUBLIC "-//W3C//DTD SVG 20010904//EN"
 "http://www.w3.org/TR/2001/REC-SVG-20010904/DTD/svg10.dtd">
<svg version="1.0" xmlns="http://www.w3.org/2000/svg"
 width="747.000000pt" height="797.000000pt" viewBox="0 0 747.000000 797.000000"
 preserveAspectRatio="xMidYMid meet">

<g transform="translate(0.000000,797.000000) scale(0.100000,-0.100000)"
fill="#000000" stroke="none">
<path d="M3465 7708 c-546 -46 -921 -146 -1340 -355 -359 -180 -622 -370 -916
-663 -207 -206 -316 -338 -454 -545 -212 -321 -357 -635 -456 -992 -23 -81
-46 -153 -53 -159 -8 -8 -40 -7 -116 2 -58 6 -108 9 -111 5 -4 -3 53 -145 126
-316 74 -170 136 -319 139 -330 4 -15 56 49 225 275 121 162 220 298 221 301
0 3 -56 11 -125 19 -69 7 -125 17 -125 22 0 18 41 174 77 288 87 283 232 586
404 844 143 214 214 300 399 490 221 226 421 384 680 539 403 240 856 392
1337 448 288 34 645 20 980 -36 366 -63 817 -237 1153 -445 307 -192 635 -482
861 -764 48 -60 90 -88 75 -51 -5 13 -81 121 -96 135 -3 3 -27 32 -55 65 -137
165 -393 407 -591 557 -309 235 -778 459 -1179 563 -263 68 -444 92 -745 101
-113 3 -209 6 -215 8 -5 1 -50 -2 -100 -6z"/>
<path d="M3550 7220 c-14 -11 -30 -20 -36 -20 -6 0 -31 -15 -55 -32 -46 -34
-74 -52 -99 -64 -8 -5 -42 -27 -75 -51 -32 -24 -62 -43 -66 -43 -9 0 -315
-186 -353 -215 -17 -13 -33 -23 -36 -23 -13 0 -60 -26 -60 -34 0 -4 -6 -8 -14
-8 -8 0 -21 -6 -28 -14 -8 -7 -23 -16 -34 -20 -11 -3 -29 -14 -40 -24 -11 -9
-41 -28 -67 -42 -26 -13 -47 -28 -47 -32 0 -5 -7 -8 -15 -8 -8 0 -15 -4 -15
-8 0 -4 -26 -21 -57 -37 -32 -17 -60 -32 -63 -35 -10 -10 -45 -31 -62 -36 -10
-4 -18 -10 -18 -15 0 -5 -6 -9 -14 -9 -8 0 -21 -6 -28 -13 -7 -7 -20 -16 -28
-20 -8 -4 -28 -16 -45 -27 -16 -11 -38 -23 -47 -26 -10 -4 -18 -10 -18 -14 0
-4 -16 -15 -35 -26 -19 -10 -35 -22 -35 -26 0 -5 -7 -8 -15 -8 -8 0 -15 -4
-15 -9 0 -5 -10 -13 -22 -17 -12 -3 -28 -13 -36 -20 -7 -8 -20 -14 -28 -14 -8
0 -14 -4 -14 -9 0 -5 -11 -12 -25 -15 -14 -4 -25 -11 -25 -16 0 -6 -7 -10 -15
-10 -8 0 -15 -4 -15 -10 0 -5 -5 -10 -11 -10 -14 0 -178 -97 -197 -117 -7 -7
-20 -13 -28 -13 -8 0 -14 -4 -14 -10 0 -5 -6 -10 -14 -10 -8 0 -21 -6 -28 -14
-8 -7 -24 -17 -36 -20 -12 -4 -22 -12 -22 -17 0 -5 -7 -9 -15 -9 -8 0 -15 -4
-15 -10 0 -5 -5 -10 -10 -10 -6 0 -20 -10 -33 -22 l-22 -23 -3 -1235 c-2
-1101 -1 -1238 13 -1267 9 -18 22 -33 30 -33 7 0 15 -3 17 -7 3 -8 30 -24 113
-68 53 -28 129 -78 133 -87 2 -5 10 -8 18 -8 8 0 14 -4 14 -9 0 -5 10 -13 23
-17 12 -4 24 -9 27 -13 7 -8 35 -25 88 -52 23 -13 42 -26 42 -31 0 -4 5 -8 11
-8 6 0 54 -28 107 -63 133 -87 218 -137 231 -137 6 0 13 -10 15 -22 9 -46 24
-214 24 -268 0 -30 2 -73 6 -95 4 -22 9 -61 11 -88 11 -113 81 -323 122 -365
11 -12 20 -7 55 27 l41 41 -13 45 c-7 25 -17 45 -22 45 -5 0 -8 8 -7 18 3 20
-9 76 -24 112 -6 14 -11 34 -12 45 -1 11 -7 63 -13 115 -7 52 -14 187 -17 300
-3 113 -8 246 -11 295 -2 50 -6 160 -8 245 -2 85 -7 196 -11 245 -8 116 1 146
46 162 34 11 74 20 133 29 16 2 43 8 60 14 25 8 67 18 96 24 3 1 28 7 55 14
28 7 68 18 90 23 22 6 54 14 70 19 17 5 64 17 105 25 123 26 160 34 204 47 22
6 48 13 57 13 22 3 122 26 139 33 8 3 25 7 36 8 12 1 40 7 62 13 42 12 101 8
142 -9 14 -5 126 -34 250 -64 184 -43 226 -51 233 -39 5 7 13 10 19 7 7 -5 9
-1 5 9 -4 11 1 17 16 19 12 2 22 8 22 15 0 15 42 63 56 63 5 0 7 5 4 10 -3 6
1 10 10 10 10 0 13 5 9 12 -5 7 -2 9 9 5 12 -4 14 -2 10 10 -5 12 -2 15 10 10
11 -4 17 -1 17 7 0 7 14 28 31 47 17 19 38 44 46 56 8 13 19 20 24 17 5 -3 9
-1 9 4 0 5 19 29 42 53 24 24 43 47 43 51 0 5 22 28 48 53 32 30 53 42 64 38
15 -6 14 -8 -3 -15 -11 -5 -28 -22 -39 -38 -11 -16 -21 -27 -24 -25 -2 3 -15
-10 -28 -28 -13 -17 -27 -30 -30 -29 -6 3 -27 -26 -28 -38 0 -8 -75 -80 -75
-73 0 4 -6 -2 -14 -12 -8 -11 -12 -24 -9 -28 3 -5 -4 -11 -16 -14 -12 -3 -21
-8 -21 -12 0 -11 -57 -71 -62 -65 -3 3 -8 -5 -11 -18 -4 -13 -20 -31 -37 -41
-16 -10 -30 -22 -30 -26 0 -15 -37 -51 -46 -43 -5 3 -4 1 1 -5 6 -6 26 -14 47
-18 31 -6 37 -4 43 14 3 12 11 21 16 21 16 0 50 40 43 52 -4 7 -3 8 5 4 6 -4
14 0 17 9 4 8 20 30 37 48 17 17 27 26 23 20 -4 -7 -5 -13 -1 -13 3 0 10 12
15 26 6 14 15 22 20 19 6 -3 13 2 17 12 3 10 19 30 34 45 15 14 25 29 21 32
-3 3 0 6 6 6 15 0 102 91 102 107 0 7 9 13 20 13 18 0 47 36 42 52 -1 4 7 10
18 13 11 4 20 10 20 14 0 4 29 38 65 75 36 37 65 69 65 71 0 5 74 80 80 80 3
0 4 6 4 13 -1 6 3 12 8 12 11 0 68 58 68 69 0 3 14 19 30 35 17 16 30 33 30
38 0 5 4 7 9 3 5 -3 19 9 32 26 12 17 55 64 95 106 41 41 72 78 69 83 -3 5 0
12 6 16 8 5 9 3 4 -7 -8 -12 -6 -12 8 0 9 7 15 17 12 21 -2 4 7 13 20 20 14 7
25 19 25 27 0 7 6 13 14 13 7 0 22 12 32 27 9 15 32 43 51 62 18 19 33 38 33
43 0 5 4 7 9 4 5 -3 15 2 22 11 12 14 12 16 -1 8 -8 -5 9 15 38 43 30 29 52
52 49 52 -3 0 9 15 26 32 18 18 35 31 40 30 4 -1 6 4 5 10 -2 7 3 12 10 10 6
-1 12 2 12 8 0 10 7 19 50 68 14 16 20 36 20 73 l0 50 -37 -45 c-21 -24 -44
-45 -50 -45 -7 -1 -13 -6 -13 -12 0 -5 6 -7 13 -3 6 4 -12 -16 -40 -45 -29
-29 -53 -56 -53 -60 0 -4 -11 -13 -25 -19 -14 -6 -25 -17 -25 -23 0 -6 -20
-31 -44 -55 -24 -23 -41 -45 -38 -48 3 -3 -2 -6 -10 -6 -9 0 -31 -19 -49 -41
-19 -23 -49 -57 -66 -76 -18 -19 -33 -37 -33 -39 0 -13 -151 -155 -159 -149
-6 3 -9 0 -6 -7 3 -8 -6 -25 -20 -38 -14 -13 -25 -30 -25 -39 0 -11 -3 -10
-14 5 -13 17 -12 21 7 40 12 12 26 21 32 20 5 0 9 4 10 9 0 6 19 30 43 53 23
22 42 44 42 47 0 3 12 18 26 33 15 15 23 21 20 15 -16 -29 4 -10 24 22 12 19
26 33 31 30 5 -4 6 2 2 11 -5 14 -2 16 15 12 13 -4 19 -2 16 6 -5 14 50 79 59
69 4 -3 7 0 7 8 0 8 14 27 30 43 17 16 30 33 30 38 0 5 3 7 8 5 4 -3 18 10 32
29 14 18 32 36 40 39 9 3 24 19 34 36 11 18 24 28 32 25 7 -3 16 0 20 6 4 6 3
8 -4 4 -6 -3 -13 -2 -17 4 -3 5 1 10 9 10 9 0 15 4 14 8 -2 5 22 34 52 64 30
31 61 63 68 72 8 11 12 61 12 170 l0 154 -27 22 c-81 62 -107 80 -116 80 -5 0
-30 15 -56 33 -25 19 -59 41 -76 49 -16 8 -54 29 -82 46 -29 17 -53 29 -53 26
0 -3 -19 10 -42 29 -24 19 -62 46 -86 58 -73 41 -81 45 -99 61 -19 15 -160
103 -178 109 -5 2 -43 26 -83 52 -40 27 -98 62 -129 78 -31 16 -86 49 -122 73
-86 57 -154 100 -166 106 -5 3 -42 26 -82 53 -39 26 -75 47 -78 47 -4 0 -29
16 -54 35 -26 19 -58 39 -72 45 -13 6 -37 19 -54 30 -16 11 -41 25 -55 32 -14
7 -49 30 -79 50 -30 21 -58 38 -63 38 -5 0 -35 18 -65 40 -31 22 -61 40 -66
40 -6 0 -20 8 -31 18 -40 35 -157 102 -179 102 -12 0 -33 -9 -47 -20z m84
-145 c8 -8 19 -15 24 -15 5 0 27 -13 49 -29 22 -16 65 -41 96 -57 32 -15 57
-31 57 -36 0 -4 7 -8 15 -8 8 0 15 -4 15 -9 0 -5 10 -13 23 -17 12 -4 24 -9
27 -13 8 -10 44 -31 63 -37 9 -4 17 -10 17 -15 0 -5 7 -9 15 -9 8 0 15 -4 15
-9 0 -5 10 -13 23 -17 12 -4 24 -10 27 -13 3 -4 22 -17 43 -30 45 -28 47 -43
5 -72 -18 -13 -36 -28 -40 -34 -5 -6 -8 -6 -8 0 0 7 -3 7 -8 0 -4 -6 -24 -19
-44 -30 -21 -11 -38 -23 -38 -27 0 -5 -7 -8 -15 -8 -8 0 -15 -4 -15 -9 0 -5
-11 -12 -25 -15 -14 -4 -25 -11 -25 -16 0 -6 -6 -10 -13 -10 -12 0 -226 -126
-237 -139 -3 -3 -22 -15 -42 -26 -21 -11 -38 -23 -38 -26 0 -4 -10 -9 -23 -13
-12 -3 -32 -14 -43 -24 -11 -11 -30 -23 -42 -26 -12 -4 -22 -11 -22 -16 0 -4
-11 -11 -25 -14 -14 -4 -25 -11 -25 -16 0 -6 -7 -10 -15 -10 -8 0 -15 -4 -15
-10 0 -5 -6 -10 -13 -10 -8 0 -24 -9 -37 -20 -13 -11 -26 -20 -30 -20 -3 0
-15 -8 -26 -17 -11 -10 -47 -31 -79 -48 -33 -16 -62 -33 -65 -36 -3 -4 -15 -9
-27 -13 -13 -4 -23 -12 -23 -17 0 -5 -7 -9 -15 -9 -8 0 -15 -4 -15 -9 0 -5
-10 -13 -22 -17 -13 -4 -25 -10 -28 -13 -3 -4 -36 -27 -75 -50 -38 -24 -72
-48 -73 -53 -2 -4 -8 -6 -13 -2 -5 3 -9 0 -9 -5 0 -6 -7 -11 -15 -11 -8 0 -15
-4 -15 -9 0 -5 -11 -12 -25 -15 -14 -4 -25 -11 -25 -16 0 -6 -7 -10 -15 -10
-8 0 -15 -4 -15 -10 0 -5 -11 -12 -25 -16 -14 -3 -25 -10 -25 -14 0 -4 -11
-11 -25 -14 -14 -4 -25 -11 -25 -16 0 -6 -4 -10 -9 -10 -14 0 -135 -72 -139
-82 -2 -4 -10 -8 -18 -8 -8 0 -14 -5 -14 -11 0 -5 -4 -7 -10 -4 -5 3 -10 1
-10 -4 0 -6 -7 -11 -15 -11 -8 0 -15 -4 -15 -10 0 -5 -6 -10 -14 -10 -8 0 -21
-6 -28 -13 -7 -7 -20 -16 -28 -20 -21 -10 -52 -30 -68 -44 -7 -7 -20 -13 -28
-13 -8 0 -14 -5 -14 -11 0 -14 -37 -2 -75 25 -16 11 -37 26 -47 31 -45 27
-226 139 -248 155 -14 9 -35 20 -48 24 -12 4 -22 12 -22 17 0 5 -7 9 -15 9 -8
0 -15 4 -15 9 0 5 -11 12 -25 15 -14 4 -25 11 -25 16 0 6 -7 10 -15 10 -8 0
-26 12 -41 27 l-27 27 29 23 c16 13 32 23 35 23 3 0 39 22 80 49 41 26 93 59
115 72 113 65 529 323 724 448 41 26 107 65 145 86 39 20 113 65 165 99 52 33
104 66 115 73 80 48 228 142 265 167 53 36 67 45 141 84 31 17 80 46 110 66
61 40 72 42 93 21z m1380 -853 c45 -27 101 -60 126 -73 25 -13 47 -27 50 -30
3 -3 12 -9 20 -12 8 -4 29 -16 45 -27 17 -11 38 -23 48 -26 9 -4 17 -10 17
-15 0 -5 4 -9 8 -9 8 0 155 -92 188 -117 5 -4 19 -13 30 -19 10 -6 21 -19 22
-28 4 -18 -29 -56 -48 -56 -5 0 -10 -3 -10 -8 0 -4 -14 -13 -30 -20 -17 -8
-36 -20 -43 -27 -7 -7 -56 -37 -108 -66 -52 -29 -95 -56 -97 -61 -2 -4 -10 -8
-17 -8 -8 0 -20 -6 -27 -12 -20 -19 -50 -38 -70 -44 -10 -4 -18 -10 -18 -14 0
-4 -8 -11 -17 -14 -10 -3 -27 -12 -38 -19 -38 -24 -110 -72 -115 -77 -10 -10
-45 -31 -62 -36 -10 -4 -18 -10 -18 -14 0 -4 -10 -10 -23 -14 -12 -3 -32 -14
-43 -24 -11 -11 -30 -23 -42 -26 -12 -4 -22 -12 -22 -17 0 -5 -6 -9 -13 -9
-12 0 -175 -95 -187 -109 -9 -10 -44 -31 -62 -37 -10 -4 -18 -10 -18 -14 0 -4
-11 -11 -25 -14 -14 -4 -25 -11 -25 -16 0 -6 -7 -10 -15 -10 -8 0 -15 -4 -15
-9 0 -5 -11 -12 -25 -15 -14 -4 -25 -11 -25 -16 0 -6 -6 -10 -14 -10 -8 0 -21
-6 -28 -12 -20 -19 -50 -38 -70 -44 -10 -4 -18 -10 -18 -15 0 -5 -6 -9 -13 -9
-7 0 -24 -11 -39 -25 -15 -14 -32 -25 -37 -25 -5 0 -16 -6 -23 -12 -7 -7 -29
-21 -48 -30 -19 -10 -57 -31 -85 -48 -27 -16 -57 -33 -65 -37 -8 -3 -17 -9
-20 -12 -3 -3 -14 -11 -25 -18 -102 -63 -171 -107 -175 -113 -13 -19 -50 -20
-81 0 -19 11 -41 23 -49 27 -8 3 -28 16 -45 27 -35 25 -64 43 -85 52 -8 4 -29
17 -46 30 -36 26 -231 144 -239 144 -3 0 -27 16 -53 34 -26 19 -60 40 -75 45
-46 18 -36 37 48 88 83 51 228 142 265 167 59 41 77 51 125 75 61 31 111 61
210 126 50 33 95 62 100 64 6 2 17 9 25 16 8 7 38 25 65 40 28 15 64 38 82 51
17 13 35 24 38 24 3 0 21 10 38 23 41 29 65 43 102 62 17 8 44 24 60 35 17 11
37 23 45 26 8 4 22 13 30 20 8 6 38 24 65 39 28 15 64 38 82 51 17 13 34 24
36 24 3 0 48 29 100 64 53 35 102 66 109 70 7 3 27 15 43 25 17 11 52 32 79
46 27 15 83 49 125 75 42 27 78 49 80 49 2 1 40 -21 85 -47z m-3424 -503 c0
-5 6 -9 14 -9 8 0 21 -6 29 -14 7 -8 38 -29 68 -47 30 -18 56 -37 57 -41 2 -4
10 -8 18 -8 8 0 14 -4 14 -10 0 -5 11 -12 25 -16 14 -3 25 -10 25 -14 0 -4 8
-10 18 -14 9 -3 31 -15 47 -26 17 -11 46 -29 65 -40 19 -11 47 -28 61 -38 15
-9 41 -26 58 -37 l31 -19 0 -228 c0 -246 4 -269 51 -289 16 -6 29 -15 29 -20
0 -5 5 -9 11 -9 6 0 25 -11 43 -25 18 -14 38 -25 44 -25 7 0 12 -4 12 -9 0 -5
10 -13 23 -17 12 -4 24 -9 27 -13 8 -10 44 -31 63 -37 9 -4 17 -10 17 -15 0
-5 4 -9 9 -9 5 0 45 -25 90 -55 45 -30 83 -55 85 -55 2 0 37 -20 77 -45 78
-48 120 -56 151 -28 16 14 18 35 18 208 0 105 3 195 7 198 6 7 67 -27 91 -50
7 -7 20 -13 28 -13 8 0 14 -4 14 -10 0 -5 6 -10 14 -10 8 0 21 -6 28 -12 18
-16 42 -32 96 -59 23 -13 42 -26 42 -31 0 -4 6 -8 14 -8 8 0 16 -4 18 -8 2 -5
15 -15 29 -23 15 -8 83 -49 152 -92 147 -93 137 -68 137 -325 0 -170 0 -173
-22 -181 -13 -5 -97 -25 -188 -45 -91 -20 -185 -41 -210 -46 -25 -6 -58 -13
-75 -16 -16 -3 -55 -12 -85 -21 -30 -8 -63 -15 -72 -14 -10 0 -20 -5 -23 -10
-4 -5 -11 -7 -16 -4 -5 4 -14 3 -21 -1 -7 -4 -23 -9 -36 -10 -14 -2 -32 -6
-41 -10 -9 -3 -31 -8 -50 -10 -18 -2 -39 -8 -45 -14 -7 -5 -15 -7 -19 -4 -3 3
-23 0 -44 -7 -21 -7 -44 -14 -52 -15 -8 -2 -26 -6 -40 -10 -14 -4 -30 -8 -36
-9 -5 -1 -12 -3 -15 -4 -3 -1 -23 -5 -45 -7 -22 -3 -41 -9 -43 -13 -2 -5 -12
-7 -22 -4 -11 3 -20 0 -20 -6 0 -6 -9 -11 -20 -11 -10 0 -24 -8 -29 -18 -9
-18 -8 -163 6 -452 7 -169 8 -328 1 -336 -4 -3 -41 17 -84 45 -42 28 -79 51
-82 51 -2 0 -25 15 -51 34 -43 31 -197 123 -231 139 -16 8 -39 21 -85 52 -16
11 -37 25 -46 30 -96 59 -150 100 -154 118 -9 35 -1 2251 8 2264 8 13 37 7 37
-8z m3500 -919 c0 -5 -8 -18 -17 -28 -10 -10 -32 -34 -50 -54 -27 -31 -33 -35
-43 -22 -11 12 -8 18 5 12 2 -2 12 8 22 22 9 14 23 29 30 33 7 5 10 13 7 19
-5 7 -1 9 9 5 9 -3 16 -3 16 1 -2 15 1 22 11 22 6 0 10 -4 10 -10z m-131 -153
c-13 -11 -23 -24 -21 -28 1 -5 -5 -9 -13 -9 -8 0 -22 -12 -32 -27 -9 -16 -40
-51 -68 -79 -28 -27 -64 -67 -80 -88 -34 -45 -63 -62 -78 -47 -8 8 -8 11 2 11
7 0 10 4 7 9 -3 5 0 8 7 7 6 0 13 2 15 7 6 19 37 42 44 33 5 -7 8 -4 8 7 0 10
7 20 15 23 8 4 12 10 9 15 -3 5 0 9 6 9 6 0 8 5 4 12 -4 6 -3 8 3 5 6 -4 14 0
17 9 3 8 10 12 16 9 5 -3 10 1 10 10 0 9 16 31 35 49 19 19 35 38 35 45 0 6 4
10 9 9 5 -2 21 10 37 27 20 22 29 26 32 16 3 -8 -6 -23 -19 -34z"/>
<path d="M6454 6257 c-8 -23 24 -73 38 -59 8 8 4 21 -10 44 -18 27 -22 30 -28
15z"/>
<path d="M3587 3733 c-4 -3 -18 -7 -31 -9 -13 -1 -91 -18 -173 -38 -125 -30
-199 -47 -403 -92 -14 -3 -32 -6 -40 -6 -8 0 -20 -5 -27 -10 -7 -5 -17 -7 -22
-4 -5 4 -12 2 -16 -3 -3 -5 -14 -10 -25 -10 -11 -1 -29 -1 -40 -2 -11 0 -22
-5 -25 -10 -4 -5 -11 -7 -16 -3 -5 3 -16 0 -24 -6 -8 -6 -19 -9 -24 -6 -5 4
-12 2 -16 -3 -3 -6 -12 -8 -21 -4 -9 3 -27 -7 -46 -28 -30 -34 -30 -34 -22
-109 5 -41 10 -127 11 -190 2 -63 5 -185 8 -270 3 -85 7 -195 8 -245 4 -122
17 -234 28 -241 5 -3 9 -20 9 -39 0 -19 5 -37 10 -40 6 -3 10 -18 10 -32 0
-13 9 -38 21 -54 11 -16 16 -29 11 -29 -7 0 -6 -11 1 -30 6 -17 16 -30 23 -30
6 0 25 18 43 40 19 24 37 38 44 34 7 -4 9 -4 5 1 -4 4 17 32 47 62 31 29 52
53 49 53 -4 0 5 9 20 21 14 11 24 24 22 27 -2 4 2 13 10 20 8 7 14 10 14 7 0
-3 17 14 38 37 20 23 55 60 77 82 22 22 34 36 28 32 -9 -5 -11 -2 -7 8 3 9 9
14 13 12 3 -2 12 2 19 10 11 12 5 14 -35 14 -37 0 -52 -5 -63 -20 -15 -21 -40
-27 -40 -9 0 5 4 8 9 5 5 -3 11 1 15 9 5 13 -14 15 -124 16 -72 1 -135 2 -142
3 -7 1 -13 22 -14 56 -8 170 -14 337 -18 506 l-4 191 39 12 c21 6 57 16 79 21
22 6 57 14 78 20 36 9 117 28 297 70 50 12 106 25 125 30 83 20 143 30 149 24
3 -3 7 -98 9 -210 2 -127 7 -204 13 -204 6 0 7 5 4 10 -3 6 -1 10 5 10 14 0
67 52 60 59 -3 3 9 15 27 26 18 11 35 28 38 38 4 9 11 15 16 12 5 -4 9 1 9 9
0 9 4 16 9 16 4 0 21 18 36 40 15 22 31 37 36 34 5 -3 9 2 9 10 0 9 5 16 11
16 5 0 7 5 3 12 -4 6 -3 8 3 5 5 -3 21 7 34 23 13 16 51 57 83 92 l60 62 -40
9 c-21 4 -46 9 -54 11 -8 2 -22 6 -30 9 -8 3 -28 8 -45 11 -16 3 -44 9 -62 14
-17 6 -34 8 -37 5 -2 -3 -11 -1 -18 3 -11 8 -92 32 -109 34 -3 0 -9 -3 -12 -7z
m-552 -1150 c-8 -8 -15 -18 -15 -23 0 -5 -9 -12 -21 -15 -11 -4 -18 -9 -16
-12 3 -2 -8 -17 -24 -32 -16 -16 -29 -32 -29 -36 0 -4 -27 -32 -60 -62 -33
-30 -57 -59 -54 -64 3 -5 1 -8 -4 -7 -6 2 -9 0 -9 -3 2 -6 -57 -59 -66 -59
-13 0 1 35 14 35 8 1 13 7 11 14 -1 7 2 10 7 7 5 -3 12 5 15 18 3 14 15 28 27
31 11 4 18 9 15 12 -9 9 15 34 25 27 5 -3 14 6 20 20 7 14 16 23 20 20 5 -3
13 5 18 18 5 13 25 36 45 53 20 16 36 35 36 41 0 7 7 14 15 18 8 3 15 13 15
22 0 13 3 14 15 4 13 -11 13 -14 0 -27z"/>
<path d="M331 3674 c0 -11 3 -14 6 -6 3 7 2 16 -1 19 -3 4 -6 -2 -5 -13z"/>
<path d="M4005 3622 c3 -10 0 -12 -10 -8 -8 3 -15 0 -15 -6 0 -6 -11 -21 -26
-34 -14 -13 -23 -24 -20 -24 3 0 -18 -22 -46 -50 -28 -27 -48 -50 -45 -50 3 0
-9 -15 -26 -32 -16 -18 -35 -32 -41 -30 -6 2 -8 1 -4 -3 4 -4 -10 -23 -30 -42
-20 -20 -36 -40 -34 -45 1 -5 -1 -7 -5 -5 -5 3 -14 -1 -21 -9 -7 -8 -10 -14
-7 -14 3 0 -26 -32 -65 -71 l-70 -71 1 -57 c0 -45 2 -51 10 -33 5 13 13 20 19
17 5 -3 10 -1 10 5 0 6 23 33 52 61 28 27 47 49 42 49 -4 0 2 7 14 16 12 8 22
22 22 30 0 8 3 14 8 14 12 0 82 68 82 80 0 6 5 8 10 5 6 -3 10 -2 10 3 0 5 17
28 39 51 21 22 37 41 34 41 -2 0 2 6 9 14 9 10 15 11 20 2 5 -7 8 -5 8 6 0 10
9 23 20 30 11 7 20 16 20 20 0 4 30 37 66 74 36 36 64 67 62 69 -1 2 -25 5
-51 8 -39 3 -47 1 -42 -11z"/>
<path d="M341 3614 c0 -11 3 -14 6 -6 3 7 2 16 -1 19 -3 4 -6 -2 -5 -13z"/>
<path d="M351 3564 c0 -11 3 -14 6 -6 3 7 2 16 -1 19 -3 4 -6 -2 -5 -13z"/>
<path d="M362 3520 c0 -14 2 -19 5 -12 2 6 2 18 0 25 -3 6 -5 1 -5 -13z"/>
<path d="M371 3474 c0 -11 3 -14 6 -6 3 7 2 16 -1 19 -3 4 -6 -2 -5 -13z"/>
<path d="M381 3434 c0 -11 3 -14 6 -6 3 7 2 16 -1 19 -3 4 -6 -2 -5 -13z"/>
<path d="M397 3380 c10 -65 84 -294 140 -435 122 -307 292 -600 511 -875 104
-131 414 -439 545 -541 168 -130 299 -212 272 -169 -3 6 1 10 9 10 10 0 13 6
10 15 -4 8 -11 15 -16 15 -23 0 -330 236 -462 356 -303 273 -539 579 -739 954
-96 181 -168 363 -265 670 l-11 35 6 -35z"/>
<path d="M2527 2038 c-4 -13 -10 -17 -18 -12 -8 4 -10 3 -5 -4 4 -7 2 -12 -3
-12 -6 0 -11 -7 -11 -15 0 -8 -7 -15 -15 -15 -19 0 -19 -4 0 -40 16 -31 45
-41 45 -16 0 8 16 30 35 50 19 20 31 36 25 36 -5 0 -11 9 -15 19 -9 28 -32 33
-38 9z"/>
<path d="M1897 1355 c-22 -16 -21 -27 4 -43 14 -9 24 -10 33 -3 7 6 15 8 18 5
3 -2 8 1 11 9 3 7 -7 20 -22 29 -22 12 -31 13 -44 3z"/>
<path d="M1552 464 c-13 -9 -22 -25 -22 -42 0 -35 8 -46 47 -66 38 -19 45 -29
37 -50 -7 -18 -46 -21 -75 -6 -15 9 -19 7 -19 -5 0 -36 101 -45 130 -10 6 7
10 29 8 47 -2 27 -11 37 -45 56 -44 24 -55 48 -27 59 8 3 26 1 40 -5 19 -9 24
-9 24 3 0 33 -61 45 -98 19z"/>
<path d="M1860 370 l0 -110 60 0 c47 0 60 3 60 15 0 11 -11 15 -40 15 -39 0
-40 1 -40 35 0 33 2 35 35 35 24 0 35 5 35 15 0 10 -11 15 -35 15 -32 0 -35 2
-35 30 0 28 2 30 40 30 29 0 40 4 40 15 0 12 -13 15 -60 15 l-60 0 0 -110z"/>
<path d="M2219 465 c-57 -31 -65 -139 -14 -182 40 -35 125 -26 125 13 0 11 -4
12 -19 4 -52 -28 -91 3 -91 72 0 66 39 95 91 68 15 -8 19 -7 19 4 0 34 -65 46
-111 21z"/>
<path d="M2520 395 c0 -78 2 -88 25 -110 28 -29 71 -33 114 -10 34 17 41 38
41 133 0 64 -2 72 -19 72 -17 0 -19 -9 -22 -85 -4 -88 -12 -104 -51 -105 -36
0 -48 28 -48 111 0 72 -2 79 -20 79 -18 0 -20 -7 -20 -85z"/>
<path d="M2910 370 c0 -103 1 -110 20 -110 17 0 20 7 20 46 0 38 3 45 18 42 9
-2 26 -22 37 -45 14 -32 25 -43 42 -43 29 0 29 5 -2 59 -21 37 -23 45 -11 55
28 22 29 54 2 81 -20 20 -35 25 -76 25 l-50 0 0 -110z m95 45 c0 -25 -4 -30
-27 -33 -26 -3 -28 -1 -28 33 0 34 2 36 28 33 23 -3 27 -8 27 -33z"/>
<path d="M3260 370 l0 -110 60 0 c47 0 60 3 60 15 0 11 -11 15 -40 15 -39 0
-40 1 -40 35 0 33 2 35 35 35 24 0 35 5 35 15 0 10 -11 15 -35 15 -32 0 -35 2
-35 30 0 28 2 30 40 30 29 0 40 4 40 15 0 12 -13 15 -60 15 l-60 0 0 -110z"/>
<path d="M3587 473 c-4 -3 -7 -53 -7 -110 0 -103 0 -104 23 -101 18 2 23 10
25 41 3 29 7 37 23 37 23 0 61 18 71 34 16 24 8 75 -14 90 -22 16 -108 22
-121 9z m93 -38 c18 -21 -2 -65 -30 -65 -17 0 -20 7 -20 40 0 32 4 40 19 40
10 0 24 -7 31 -15z"/>
<path d="M3895 468 c-2 -7 -18 -51 -35 -97 -35 -99 -36 -111 -11 -111 12 0 21
9 25 25 6 22 12 25 51 25 39 0 45 -3 51 -25 4 -18 13 -25 31 -25 19 0 23 4 19
18 -4 9 -21 58 -39 107 -29 81 -35 90 -60 93 -16 2 -29 -2 -32 -10z m32 -126
c-16 -2 -31 -2 -33 1 -2 2 4 26 13 53 l16 49 17 -50 17 -50 -30 -3z"/>
<path d="M4253 468 c-51 -24 -66 -117 -29 -174 28 -42 136 -42 136 1 0 12 -4
14 -19 5 -50 -26 -91 5 -91 70 0 65 41 96 91 70 15 -8 19 -7 19 4 0 32 -62 46
-107 24z"/>
<path d="M4552 373 c3 -100 4 -108 23 -108 17 0 20 8 23 49 l3 49 35 -52 c22
-32 42 -51 54 -51 27 0 25 7 -15 67 l-34 51 34 45 c41 53 42 57 15 57 -13 0
-32 -17 -53 -46 l-32 -46 -5 44 c-4 35 -9 44 -28 46 -23 3 -23 3 -20 -105z"/>
<path d="M4912 464 c-45 -31 -17 -98 49 -119 14 -5 19 -14 17 -28 -2 -17 -10
-22 -33 -21 -16 0 -37 2 -45 5 -8 2 -15 -2 -15 -11 0 -18 55 -35 89 -26 14 3
33 18 42 32 23 34 7 67 -46 94 -28 14 -40 27 -38 38 4 21 44 28 64 12 11 -10
14 -9 14 8 0 34 -59 44 -98 16z"/>
</g>
</svg>
